<?xml version="1.0" encoding="utf-8"?>
<!-- Generator: Adobe Illustrator 19.1.0, SVG Export Plug-In . SVG Version: 6.00 Build 0)  -->
<svg version="1.1" id="Capa_1" xmlns="http://www.w3.org/2000/svg" xmlns:xlink="http://www.w3.org/1999/xlink" x="0px" y="0px"
	 viewBox="-1030.3 234.3 802.3 128" style="enable-background:new -1030.3 234.3 802.3 128;" xml:space="preserve">
<style type="text/css">
	.st0{fill:#FFDA44;}
</style>
<path class="st0" d="M-966.3,362.3c-35.3,0-64-28.7-64-64c0-35.3,28.7-64,64-64c0,0,674.3,0,674.3,0c0,0,0,0,0,0c0,0,0,0,0,0
	c0,0,0,0,0,0c0,0,0,0,0,0c0,0,0,0,0,0c0,0,0,0,0,0c35.3,0,64,28.7,64,64c0,35-28.2,63.5-63,64C-291.3,362.3-966,362.3-966.3,362.3z
	 M-966.3,238.6c-32.9,0-59.7,26.8-59.7,59.7s26.8,59.7,59.7,59.7c0.3,0,675,0,675.3,0c32.4-0.5,58.7-27.1,58.7-59.7
	c0-32.6-26.2-59.1-58.7-59.7C-291.3,238.6-966,238.6-966.3,238.6z"/>
<g>
	<path class="st0" d="M-268.2,323.2c-0.6,0-1.1-0.2-1.5-0.6l-12.2-12.2c-0.8-0.8-0.8-2.2,0-3.1s2.2-0.8,3.1,0l12.2,12.2
		c0.8,0.8,0.8,2.2,0,3.1C-267.1,323-267.7,323.2-268.2,323.2z"/>
</g>
<path class="st0" d="M-294.9,314.5c-11.1,0-20.2-9.1-20.2-20.2s9.1-20.2,20.2-20.2c11.1,0,20.2,9.1,20.2,20.2
	C-274.7,305.5-283.8,314.5-294.9,314.5z M-294.9,278.5c-8.7,0-15.9,7.1-15.9,15.9c0,8.7,7.1,15.9,15.9,15.9
	c8.7,0,15.9-7.1,15.9-15.9C-279,285.6-286.1,278.5-294.9,278.5z"/>
</svg>
