<?xml version="1.0" encoding="utf-8"?>
<!-- Generator: Adobe Illustrator 19.1.0, SVG Export Plug-In . SVG Version: 6.00 Build 0)  -->
<svg version="1.1" id="Capa_1" xmlns="http://www.w3.org/2000/svg" xmlns:xlink="http://www.w3.org/1999/xlink" x="0px" y="0px"
	 viewBox="-356 234.3 128 128" style="enable-background:new -356 234.3 128 128;" xml:space="preserve">
<style type="text/css">
	.st0{fill:#FFDA44;}
</style>
<path class="st0" d="M-292,362.3c-35.3,0-64-28.7-64-64s28.7-64,64-64s64,28.7,64,64S-256.7,362.3-292,362.3z M-292,238.6
	c-32.9,0-59.7,26.8-59.7,59.7S-324.9,358-292,358s59.7-26.8,59.7-59.7S-259.1,238.6-292,238.6z"/>
<g>
	<path class="st0" d="M-268.2,323.2c-0.6,0-1.1-0.2-1.5-0.6l-12.2-12.2c-0.8-0.8-0.8-2.2,0-3.1c0.8-0.8,2.2-0.8,3.1,0l12.2,12.2
		c0.8,0.8,0.8,2.2,0,3.1C-267.1,323-267.7,323.2-268.2,323.2z"/>
</g>
<path class="st0" d="M-294.9,314.5c-11.1,0-20.2-9.1-20.2-20.2s9.1-20.2,20.2-20.2s20.2,9.1,20.2,20.2
	C-274.7,305.5-283.8,314.5-294.9,314.5z M-294.9,278.5c-8.7,0-15.9,7.1-15.9,15.9c0,8.7,7.1,15.9,15.9,15.9
	c8.7,0,15.9-7.1,15.9-15.9S-286.1,278.5-294.9,278.5z"/>
</svg>
